<?xml version="1.0" encoding="UTF-8"?><svg id="Layer_1" xmlns="http://www.w3.org/2000/svg" viewBox="0 0 461.41 149.06"><defs><style>.cls-1{fill:none;stroke:#231f20;stroke-miterlimit:10;stroke-width:5px;}.cls-2{fill:#25acdf;}.cls-3{fill:#07080a;}</style></defs><path class="cls-2" d="m.01,1.1l80.22,117.03h14.29V.55h-15.93v89.01L17.05,0S-.54.55.01,1.1Z"/><rect class="cls-2" x="113.09" y="54.89" width="11.5" height="62.5"/><rect class="cls-2" x="257.76" y="36.73" width="12.5" height="81"/><polyline class="cls-1" points="118.26 49.39 118.26 24.06 184.42 24.06 191.26 37.06 209.26 9.89 222.59 35.23 236.59 16.23 243.09 24.73 353.09 24.73 353.09 47.23"/><path class="cls-2" d="m148.26,38c0,1,0,15.94,0,17,0,.04-.03.06-.07.06h-12.92s-.07.03-.07.07v9.76s.03.07.07.07h12.87s.07.03.07.07v39.1s-.61,15.75,15.75,15.75c0,0,13.25.03,13.19-2.64-.05-2.48,0-9.46,0-10.44,0-.05-.05-.08-.09-.06-.62.35-4.2,2.27-8.18,2.17-.95-.02-1.85-.19-2.67-.44-2.76-.84-4.99-2.88-6.29-5.45-.01-.02-.02-.05-.03-.07-.29-.58-.45-1.22-.45-1.87v-36.04s.03-.07.07-.07h16.59s.07-.03.07-.07v-9.87s-.03-.07-.07-.07h-16.37s-.07-.03-.07-.07v-16.92s-.02-.07-.06-.07c-.85,0-10.46.05-11.28.05-.03,0-.05.02-.05.05Z"/><path class="cls-2" d="m191.15,62.73c11.89-10.17,24.67-8.83,24.67-8.83,25.17,0,26.11,17.39,26.11,17.39v46.83h-10.72v-9.11l-1.33.06c-3.56,9.39-16.22,9.44-16.22,9.44h-4.47s-3.75,0-3.75,0c-3.94,0-7.79-1.34-10.76-3.94-.04-.03-.07-.06-.11-.1-3.41-3.02-6.72-8.16-6.74-16.75-.06-17.72,26.5-18.94,26.5-18.94h16.17v-7.17s-4.44-8.06-14.67-8.61-16.78,6.94-16.78,6.94l-7.89-7.22Zm11.86,29c-2.67,2.25-3.25,4.67-3.81,6.51-1.99,6.55,3.35,9.08,3.35,9.08.76.33,2.8,1.29,3.54,1.46,21.12,4.83,25.17-20.38,25.17-20.38-24.62-1.25-28.25,3.33-28.25,3.33Z"/><path class="cls-3" d="m319.92,86.73c0-18.41,14.92-33.33,33.33-33.33s33.33,14.92,33.33,33.33-14.92,33.33-33.33,33.33-33.33-14.92-33.33-33.33Zm33.42,21.17c11.97,0,21.67-9.7,21.67-21.67s-9.7-21.67-21.67-21.67-21.67,9.7-21.67,21.67,9.7,21.67,21.67,21.67Z"/><circle class="cls-2" cx="352.42" cy="86.06" r="10.5"/><rect class="cls-3" x="294.09" y="36.98" width="12.5" height="81"/><path class="cls-3" d="m394.67,86.14c0-18.41,14.92-33.33,33.33-33.33s33.33,14.92,33.33,33.33-14.92,33.33-33.33,33.33-33.33-14.92-33.33-33.33Zm33.42,21.17c11.97,0,21.67-9.7,21.67-21.67s-9.7-21.67-21.67-21.67-21.67,9.7-21.67,21.67,9.7,21.67,21.67,21.67Z"/><path class="cls-3" d="m450.09,54.74v65.82s-2.33,17.67-21.67,17.67c-18.28,0-22.7-8.79-23.13-9.75-.02-.04-.07-.05-.1-.02l-8.68,8.68s7.25,12.08,30.08,11.92c19.99-.15,29-11.66,30.93-14.53.26-.39,1.81-3.47,1.96-3.92.65-1.9,1.23-5.09,1.78-9.22.42-3.12-.16-66.65,0-66.44.1.13-11.17-.21-11.17-.21Z"/></svg>