<?xml version="1.0" encoding="UTF-8"?><svg id="Layer_1" xmlns="http://www.w3.org/2000/svg" viewBox="0 0 668.53 243"><defs><style>.cls-1{fill:#555086;}.cls-2{fill:#00e6d7;}</style></defs><circle class="cls-2" cx="34" cy="34.06" r="34"/><circle class="cls-2" cx="125.11" cy="35" r="35"/><circle class="cls-1" cx="35.11" cy="122" r="35"/><path class="cls-1" d="m69.86,118.42s1.88-28.06,12.88-35.39c0,0,15.11-12.25,39.28-13.42,0-1.69-32.07-32.94-32.07-32.94,0,0-4.54,26.36-13.21,34.53s-16.68,15.97-42.85,15.81l35.97,31.42Z"/><path class="cls-2" d="m86.69,50.29c2.24-7.53,3.46-15,3.46-15,0,0,32.11,32.85,32.11,34.55-24.17,1.17-39.28,13.42-39.28,13.42-.66.44-1.3.96-1.89,1.56-.04.04,3.84-8.67,5.17-17.98,1.69-11.86-.35-13.93.43-16.54Z"/><g><path class="cls-1" d="m189.25,88.89h22.2l-38.67,91.39h-22.2l-38.85-91.39h22.57l12.77,31.27,14.62,38.67,14.8-38.67,12.77-31.27Z"/><path class="cls-1" d="m221.44,71.59c-2.47-2.4-3.7-5.39-3.7-8.97,0-3.82,1.23-6.94,3.7-9.34,2.47-2.41,5.61-3.61,9.44-3.61s7.18,1.2,9.71,3.61c2.53,2.4,3.79,5.52,3.79,9.34,0,3.58-1.27,6.57-3.79,8.97-2.53,2.4-5.77,3.61-9.71,3.61s-6.97-1.2-9.44-3.61Zm-.92,17.3h20.72v91.39h-20.72v-91.39Z"/><path class="cls-1" d="m320.78,177.13c-3.58,1.6-6.94,2.75-10.08,3.42-3.14.68-6.63,1.02-10.45,1.02-9.62,0-17.02-2.78-22.2-8.33s-7.77-13.69-7.77-24.42v-42.37h-17.21v-17.58h17.21v-23.86l20.54-2.22v26.08h26.27v17.58h-26.27v42.37c0,4.69,1.08,8.26,3.24,10.73,2.16,2.47,5.33,3.7,9.53,3.7,3.7,0,7.52-.93,11.47-2.78l5.73,16.65Z"/><path class="cls-1" d="m421.24,88.89v91.39h-18.5l-.18-12.21c-3.58,4.44-8.26,7.93-14.06,10.45-5.8,2.53-12.21,3.79-19.24,3.79-8.88,0-16.74-2.01-23.59-6.01s-12.18-9.65-16-16.93c-3.82-7.28-5.73-15.54-5.73-24.79s1.91-17.51,5.73-24.79c3.82-7.28,9.16-12.92,16-16.93,6.84-4.01,14.71-6.01,23.59-6.01,7.03,0,13.44,1.27,19.24,3.79,5.8,2.53,10.48,6.01,14.06,10.45l.18-12.21h18.5Zm-28.49,66.51c5.18-5.36,7.77-12.3,7.77-20.81s-2.59-15.45-7.77-20.81c-5.18-5.37-11.9-8.05-20.17-8.05s-14.99,2.68-20.17,8.05c-5.18,5.36-7.77,12.3-7.77,20.81s2.59,15.45,7.77,20.81c5.18,5.37,11.9,8.05,20.17,8.05s14.98-2.68,20.17-8.05Z"/><path class="cls-1" d="m434.77,50.33h20.72v129.5h-20.72V50.33Z"/><path class="cls-1" d="m488.64,175.23c-7.4-4.13-13.11-9.81-17.11-17.02-4.01-7.21-6.01-15.38-6.01-24.51s2-17.3,6.01-24.51c4.01-7.21,9.71-12.89,17.11-17.02,7.4-4.13,15.97-6.2,25.71-6.2s18.13,2.07,25.53,6.2c7.4,4.13,13.1,9.81,17.11,17.02,4.01,7.21,6.01,15.39,6.01,24.51s-2.01,17.3-6.01,24.51c-4.01,7.21-9.71,12.89-17.11,17.02-7.4,4.13-15.91,6.2-25.53,6.2s-18.32-2.06-25.71-6.2Zm40.42-16.56c4.26-2.59,7.52-6.07,9.81-10.45,2.28-4.38,3.42-9.22,3.42-14.52s-1.14-10.14-3.42-14.52c-2.28-4.38-5.55-7.86-9.81-10.45-4.25-2.59-9.16-3.89-14.71-3.89s-10.45,1.3-14.71,3.89c-4.26,2.59-7.56,6.08-9.9,10.45-2.34,4.38-3.51,9.22-3.51,14.52s1.17,10.15,3.51,14.52c2.34,4.38,5.64,7.86,9.9,10.45,4.25,2.59,9.16,3.88,14.71,3.88s10.45-1.29,14.71-3.88Z"/><path class="cls-1" d="m660.76,157.25c-3.95,6.34-9.74,11.27-17.39,14.8,7.28,2.88,12.89,6.93,16.84,12.15,3.95,5.22,5.92,11.43,5.92,18.62,0,8.1-2.01,15.19-6.01,21.27-4.01,6.08-9.68,10.75-17.02,14.01-7.34,3.27-15.88,4.9-25.62,4.9s-18.69-1.8-26.08-5.39c-7.4-3.6-13.04-8.69-16.93-15.29-3.88-6.6-5.64-14.21-5.27-22.83h20.35c-.25,7.18,2.19,12.94,7.31,17.25,5.12,4.31,11.99,6.47,20.63,6.47s15.11-1.9,20.17-5.68c5.06-3.79,7.58-8.76,7.58-14.9s-2.44-10.95-7.31-14.41c-4.87-3.46-11.56-5.19-20.07-5.19-9.99,0-18.72-1.96-26.18-5.88-7.46-3.92-13.23-9.54-17.3-16.86-4.07-7.32-6.1-15.81-6.1-25.48s2.1-17.64,6.29-25.09c4.19-7.45,10.02-13.26,17.48-17.44,7.46-4.18,15.82-6.27,25.07-6.27,9.74,0,18.01,2.16,24.79,6.47l11.66-15.09,14.98,12.15-12.76,15.68c3.82,4.84,6.6,9.54,8.33,14.11,1.73,4.58,2.59,9.74,2.59,15.48,0,8.62-1.97,16.11-5.92,22.44Zm-22.66-1.86c5.24-5.22,7.86-12.09,7.86-20.58s-2.59-15.58-7.77-20.87-12.09-7.94-20.72-7.94-15.54,2.65-20.72,7.94c-5.18,5.29-7.77,12.25-7.77,20.87s2.62,15.36,7.86,20.58c5.24,5.23,12.12,7.84,20.63,7.84s15.38-2.61,20.63-7.84Z"/></g></svg>